<?xml version="1.0" standalone="no"?>
<!--
Font Awesome Pro 5.13.0 by @fontawesome - https://fontawesome.com
License - https://fontawesome.com/license (Commercial License)
-->
<!DOCTYPE svg PUBLIC "-//W3C//DTD SVG 1.1//EN" "http://www.w3.org/Graphics/SVG/1.1/DTD/svg11.dtd" >
<svg xmlns="http://www.w3.org/2000/svg" version="1.1">
	<metadata>
		Created by FontForge 20190801 at Mon Mar 23 10:47:14 2020
		By Robert Madole
		Copyright (c) Font Awesome
	</metadata>
	<defs>
		<font id="FontAwesome5Pro-Light" horiz-adv-x="640">
			<font-face
					font-family="Font Awesome 5 Pro Light"
					font-weight="300"
					font-stretch="normal"
					units-per-em="512"
					panose-1="2 0 3 3 0 0 0 0 0 0"
					ascent="448"
					descent="-64"
					bbox="-0.0627565 -64.0625 640 448.05"
					underline-thickness="25"
					underline-position="-50"
					unicode-range="U+0020-F976"
			/>
			<missing-glyph/>
			<glyph glyph-name="truck" unicode="&#xf0d1;"
				   d="M632 64c4.40039 0 8 -3.59961 8 -8v-16c0 -4.40039 -3.59961 -8 -8 -8h-57.5996c1 -5.2002 1.59961 -10.5 1.59961 -16c0 -44.2002 -35.7998 -80 -80 -80s-80 35.7998 -80 80c0 5.5 0.5 10.7998 1.59961 16h-195.199c1 -5.2002 1.59961 -10.5 1.59961 -16
c0 -44.2002 -35.7998 -80 -80 -80s-80 35.7998 -80 80c0 5.5 0.5 10.7998 1.59961 16h-16.1992c-27.2002 0 -49.4004 20.9004 -49.4004 46.5996v290.801c0 25.6992 22.2002 46.5996 49.4004 46.5996h317.199c27.2002 0 49.4004 -20.9004 49.4004 -46.5996v-49.4004h44.0996
c16.9004 0 33.4004 -6.7998 45.2002 -18.7998l83.9004 -83.9004c12 -11.8994 18.7998 -28.3994 18.7998 -45.2002v-108.1h24zM460.1 288v-0.0996094h-44.0996v-96h152.4c-0.700195 0.899414 -1 2 -1.80078 2.7998l-83.8994 83.8994
c-5.90039 6 -14.2002 9.40039 -22.6006 9.40039zM144 -32c26.5 0 48 21.5 48 48s-21.5 48 -48 48s-48 -21.5 -48 -48s21.5 -48 48 -48zM207.6 64h176.4v305.4c0 8.09961 -7.7998 14.5996 -17.4004 14.5996h-317.199c-9.60059 0 -17.4004 -6.5 -17.4004 -14.5996v-290.801
c0 -8.09961 7.7998 -14.5996 17.4004 -14.5996h31c14.5996 19.2998 37.5996 32 63.5996 32s49 -12.7002 63.5996 -32zM496 -32c26.5 0 48 21.5 48 48s-21.5 48 -48 48s-48 -21.5 -48 -48s21.5 -48 48 -48zM496 96c26.0996 0 49 -12.7002 63.5996 -32h16.4004v96h-160v-96
h16.4004c14.5996 19.2998 37.5 32 63.5996 32z"/>
			<glyph glyph-name="stethoscope" unicode="&#xf0f1;" horiz-adv-x="512"
				   d="M430.1 351.5c45 1.09961 81.9004 -35.0996 81.9004 -80c0 -38.7002 -27.5 -71 -64 -78.4004v-105.6c0 -83.5 -71.7998 -151.5 -160 -151.5s-160 68 -160 151.6v8.90039c-71.9004 8 -128 69.0996 -128 143.1v182.601c0 5.5 3.7002 10.2998 9.09961 11.5996
l55.3008 13.7998c6.5 1.60059 13 -2.2998 14.5996 -8.69922l1.90039 -7.7002c1.59961 -6.5 -2.30078 -13 -8.7002 -14.6006l-40.2002 -10.0996v-167c0 -62 50.5996 -112.4 112.7 -112c61.7998 0.299805 111.3 51.4004 111.3 113.2v165.8l-40.2998 10
c-6.40039 1.7002 -10.2998 8.2002 -8.7002 14.5996l1.90039 7.80078c1.69922 6.39941 8.19922 10.2998 14.5996 8.69922l55.4004 -13.7998c5.39941 -1.2998 9.09961 -6.09961 9.09961 -11.5996v-182.601c0 -74 -56.0996 -135.1 -128 -143.1v-8.90039
c0 -65.8994 57.4004 -119.5 128 -119.5s128 53.6006 128 119.5v105.601c-36.2002 7.2998 -63.5 39 -64 77.2002c-0.599609 43.5996 34.5 80.0996 78.0996 81.0996zM432 223.5c26.5 0 48 21.5 48 48s-21.5 48 -48 48s-48 -21.5 -48 -48s21.5 -48 48 -48zM455.5 271.5
c0 -13 -10.5 -23.5 -23.5 -23.5s-23.5 10.5 -23.5 23.5s10.5 23.5 23.5 23.5s23.5 -10.5 23.5 -23.5z"/>
			<glyph glyph-name="ambulance" unicode="&#xf0f9;"
				   d="M296 256c4.40039 0 8 -3.59961 8 -8v-48c0 -4.40039 -3.59961 -8 -8 -8h-56v-56c0 -4.40039 -3.59961 -8 -8 -8h-48c-4.40039 0 -8 3.59961 -8 8v56h-56c-4.40039 0 -8 3.59961 -8 8v48c0 4.40039 3.59961 8 8 8h56v56c0 4.40039 3.59961 8 8 8h48
c4.40039 0 8 -3.59961 8 -8v-56h56zM632 64c4.40039 0 8 -3.59961 8 -8v-16c0 -4.40039 -3.59961 -8 -8 -8h-57.5996c1 -5.2002 1.59961 -10.5 1.59961 -16c0 -44.2002 -35.7998 -80 -80 -80s-80 35.7998 -80 80c0 5.5 0.5 10.7998 1.59961 16h-195.199
c1 -5.2002 1.59961 -10.5 1.59961 -16c0 -44.2002 -35.7998 -80 -80 -80s-80 35.7998 -80 80c0 5.5 0.5 10.7998 1.59961 16h-16.1992c-27.2002 0 -49.4004 20.9004 -49.4004 46.5996v290.801c0 25.6992 22.2002 46.5996 49.4004 46.5996h317.199
c27.2002 0 49.4004 -20.9004 49.4004 -46.5996v-49.4004h44.0996c16.9004 0 33.4004 -6.7998 45.2002 -18.7998l83.9004 -83.9004c12 -11.8994 18.7998 -28.3994 18.7998 -45.2002v-108.1h24zM144 -32c26.5 0 48 21.5 48 48s-21.5 48 -48 48s-48 -21.5 -48 -48
s21.5 -48 48 -48zM384 64v305.4c0 8.09961 -7.7998 14.5996 -17.4004 14.5996h-317.199c-9.60059 0 -17.4004 -6.5 -17.4004 -14.5996v-290.801c0 -8.09961 7.7998 -14.5996 17.4004 -14.5996h31c14.5996 19.2998 37.5996 32 63.5996 32s49 -12.7002 63.5996 -32h176.4z
M416 288v-96.0996h152.4c-0.700195 0.899414 -1 2 -1.80078 2.7998l-83.8994 83.8994c-5.90039 6 -14.2002 9.40039 -22.6006 9.40039h-44.0996zM496 -32c26.5 0 48 21.5 48 48s-21.5 48 -48 48s-48 -21.5 -48 -48s21.5 -48 48 -48zM576 64v96h-160v-96h16.4004
c14.5996 19.2998 37.5996 32 63.5996 32s49 -12.7002 63.5996 -32h16.4004z"/>
			<glyph glyph-name="heartbeat" unicode="&#xf21e;" horiz-adv-x="512"
				   d="M468.7 371.5c27.8994 -27.5 43.2998 -64.2002 43.2002 -103.4c0 -34.1992 -12.3008 -66.0996 -33.8008 -92.0996h-136l-22.0996 44.2002l-49.7002 -99.4004c-6 -12.0996 -23.3994 -11.7002 -28.8994 0.600586l-56.9004 126.399l-29.9004 -71.7998h-120.8
c-21.5 26 -33.7998 57.9004 -33.7998 92.0996c0 39.2002 15.4004 75.9004 43.2998 103.4c45 44.2998 93.7002 44.5 106.4 44.5c12.7998 0 61.5996 -0.299805 106.3 -44.4004c44.7998 44.2002 93.5996 44.4004 106.3 44.4004s61.2998 -0.200195 106.4 -44.5zM462.5 208
c9.09961 14.5 42.5996 82.5996 -18.4004 142.7c-22.5 22.2002 -52.0996 33.2998 -81.7998 33.2998c-31.7998 0 -51.2998 -3.09961 -106.3 -57.2998c-51.7998 51 -72.4004 57.2998 -106.3 57.2998c-29.7002 0 -59.2998 -11.0996 -81.9004 -33.2998
c-60.8994 -60 -27.5 -128.101 -18.2998 -142.7h83.7998l35.9004 86.2002c5.39941 12.8994 23.5996 13.2002 29.3994 0.399414l58.2002 -129.3l48.9004 97.9004c5.89941 11.7998 22.7002 11.7998 28.5996 0l27.6006 -55.2002h100.6zM268.7 4.59961l134.8 139.4h44.5
l-156.8 -162.2c-18.7002 -18.3994 -48.6006 -18.5 -67.2998 0l-159.9 162.2h44.9004l137.399 -139.4c6.2002 -6.09961 16.2002 -6.09961 22.4004 0z"/>
			<glyph glyph-name="allergies" unicode="&#xf461;" horiz-adv-x="448"
				   d="M240 32c8.7998 0 16 -7.2002 16 -16s-7.2002 -16 -16 -16s-16 7.2002 -16 16s7.2002 16 16 16zM336 32c8.7998 0 16 -7.2002 16 -16s-7.2002 -16 -16 -16s-16 7.2002 -16 16s7.2002 16 16 16zM176 64c8.7998 0 16 -7.2002 16 -16s-7.2002 -16 -16 -16s-16 7.2002 -16 16
s7.2002 16 16 16zM368 160c8.7998 0 16 -7.2002 16 -16s-7.2002 -16 -16 -16s-16 7.2002 -16 16s7.2002 16 16 16zM304 96c8.7998 0 16 -7.2002 16 -16s-7.2002 -16 -16 -16s-16 7.2002 -16 16s7.2002 16 16 16zM240 128c8.7998 0 16 -7.2002 16 -16s-7.2002 -16 -16 -16
s-16 7.2002 -16 16s7.2002 16 16 16zM176 160c8.7998 0 16 -7.2002 16 -16s-7.2002 -16 -16 -16s-16 7.2002 -16 16s7.2002 16 16 16zM392 336c30.9004 0 56 -25.0996 55.9004 -56v-120.4c0 -23.0996 -2.30078 -46.2998 -6.80078 -69l-20.5996 -103.199
c-6 -29.8008 -32.4004 -51.4004 -62.7998 -51.4004h-180.601c-21.5 0 -41.3994 10.7002 -53.2998 28.5996l-113.7 171.301c-17.6992 25.2998 -11.5 60.2998 13.8008 78c30 21 60.5996 5.09961 72.0996 -6.7002v152.8c0 30.9004 25.0996 56 56 56
c9.7002 0 18.7998 -2.5 26.7002 -6.7998c7.2998 22.5 28.3994 38.7998 53.2998 38.7998s46 -16.2998 53.2998 -38.7998c7.90039 4.2998 17 6.7998 26.7002 6.7998c30.9004 0 56 -25.0996 56 -56v-29.4004c7.2998 3.5 15.4004 5.40039 24 5.40039zM416 159.7v120.3
c0 13.2998 -10.7002 24 -24 24s-24 -10.7002 -24 -24v-80c0 -4.40039 -3.59961 -8 -8 -8h-16c-4.40039 0 -8 3.59961 -8 8v160c0 13.2998 -10.7002 24 -24 24s-24 -10.7002 -24 -24v-160c0 -4.40039 -3.59961 -8 -8 -8h-16c-4.40039 0 -8 3.59961 -8 8v192
c0 13.2998 -10.7002 24 -24 24s-24 -10.7002 -24 -24v-192c0 -4.40039 -3.59961 -8 -8 -8h-16c-4.40039 0 -8 3.59961 -8 8v160c0 13.2998 -10.7002 24 -24 24s-24 -10.7002 -24 -24v-228.1c0 -7.90039 -10.0996 -11 -14.5996 -4.60059l-37.8008 54.4004
c-3.39941 4.89941 -17.5996 17 -33.3994 5.89941c-10.9004 -7.59961 -13.5 -22.5 -5.90039 -33.3994l114.2 -171.9c6 -8.89941 16 -14.2998 26.7002 -14.2998h180.6c15.2998 0 28.4004 10.7002 31.4004 25.7002l20.5996 103.2
c4.10059 20.6992 6.2002 41.6992 6.2002 62.7998z"/>
			<glyph glyph-name="barcode-alt" unicode="&#xf463;"
				   d="M280 352c4.40039 0 8 -3.59961 8 -8v-304c0 -4.40039 -3.59961 -8 -8 -8h-16c-4.40039 0 -8 3.59961 -8 8v304c0 4.40039 3.59961 8 8 8h16zM216 352c4.40039 0 8 -3.59961 8 -8v-304c0 -4.40039 -3.59961 -8 -8 -8h-16c-4.40039 0 -8 3.59961 -8 8v304
c0 4.40039 3.59961 8 8 8h16zM592 448c26.5 0 48 -21.5 48 -48v-416c0 -26.5 -21.5 -48 -48 -48h-544c-26.5 0 -48 21.5 -48 48v416c0 26.5 21.5 48 48 48h544zM608 -16v416c0 8.7998 -7.2002 16 -16 16h-544c-8.7998 0 -16 -7.2002 -16 -16v-416
c0 -8.7998 7.2002 -16 16 -16h544c8.7998 0 16 7.2002 16 16zM152 352c4.40039 0 8 -3.59961 8 -8v-304c0 -4.40039 -3.59961 -8 -8 -8h-48c-4.40039 0 -8 3.59961 -8 8v304c0 4.40039 3.59961 8 8 8h48zM536 352c4.40039 0 8 -3.59961 8 -8v-304
c0 -4.40039 -3.59961 -8 -8 -8h-48c-4.40039 0 -8 3.59961 -8 8v304c0 4.40039 3.59961 8 8 8h48zM408 352c4.40039 0 8 -3.59961 8 -8v-304c0 -4.40039 -3.59961 -8 -8 -8h-48c-4.40039 0 -8 3.59961 -8 8v304c0 4.40039 3.59961 8 8 8h48z"/>
			<glyph glyph-name="barcode-read" unicode="&#xf464;"
				   d="M152 448c4.40039 0 8 -3.59961 8 -8v-16c0 -4.40039 -3.59961 -8 -8 -8h-120v-128c0 -4.40039 -3.59961 -8 -8 -8h-16c-4.40039 0 -8 3.59961 -8 8v152c0 4.40039 3.59961 8 8 8h144zM152 -32c4.40039 0 8 -3.59961 8 -8v-16c0 -4.40039 -3.59961 -8 -8 -8h-144
c-4.40039 0 -8 3.59961 -8 8v152c0 4.40039 3.59961 8 8 8h16c4.40039 0 8 -3.59961 8 -8v-128h120zM632 448c4.40039 0 8 -3.59961 8 -8v-152c0 -4.40039 -3.59961 -8 -8 -8h-16c-4.40039 0 -8 3.59961 -8 8v128h-120c-4.40039 0 -8 3.59961 -8 8v16
c0 4.40039 3.59961 8 8 8h144zM632 104c4.40039 0 8 -3.59961 8 -8v-152c0 -4.40039 -3.59961 -8 -8 -8h-144c-4.40039 0 -8 3.59961 -8 8v16c0 4.40039 3.59961 8 8 8h120v128c0 4.40039 3.59961 8 8 8h16zM152 352c4.40039 0 8 -3.59961 8 -8v-304
c0 -4.40039 -3.59961 -8 -8 -8h-48c-4.40039 0 -8 3.59961 -8 8v304c0 4.40039 3.59961 8 8 8h48zM488 32c-4.40039 0 -8 3.59961 -8 8v304c0 4.40039 3.59961 8 8 8h48c4.40039 0 8 -3.59961 8 -8v-304c0 -4.40039 -3.59961 -8 -8 -8h-48zM408 352
c4.40039 0 8 -3.59961 8 -8v-304c0 -4.40039 -3.59961 -8 -8 -8h-48c-4.40039 0 -8 3.59961 -8 8v304c0 4.40039 3.59961 8 8 8h48zM216 352c4.40039 0 8 -3.59961 8 -8v-304c0 -4.40039 -3.59961 -8 -8 -8h-16c-4.40039 0 -8 3.59961 -8 8v304c0 4.40039 3.59961 8 8 8h16z
M280 352c4.40039 0 8 -3.59961 8 -8v-304c0 -4.40039 -3.59961 -8 -8 -8h-16c-4.40039 0 -8 3.59961 -8 8v304c0 4.40039 3.59961 8 8 8h16z"/>
			<glyph glyph-name="barcode-scan" unicode="&#xf465;"
				   d="M160 440v-152h-96v152c0 4.40039 3.59961 8 8 8h80c4.40039 0 8 -3.59961 8 -8zM288 440v-152h-64v152c0 4.40039 3.59961 8 8 8h48c4.40039 0 8 -3.59961 8 -8zM384 440v-152h-32v152c0 4.40039 3.59961 8 8 8h16c4.40039 0 8 -3.59961 8 -8zM480 440v-152h-64v152
c0 4.40039 3.59961 8 8 8h48c4.40039 0 8 -3.59961 8 -8zM576 440v-152h-64v152c0 4.40039 3.59961 8 8 8h48c4.40039 0 8 -3.59961 8 -8zM416 -56v152h64v-152c0 -4.40039 -3.59961 -8 -8 -8h-48c-4.40039 0 -8 3.59961 -8 8zM352 -56v152h32v-152
c0 -4.40039 -3.59961 -8 -8 -8h-16c-4.40039 0 -8 3.59961 -8 8zM64 -56v152h96v-152c0 -4.40039 -3.59961 -8 -8 -8h-80c-4.40039 0 -8 3.59961 -8 8zM224 -56v152h64v-152c0 -4.40039 -3.59961 -8 -8 -8h-48c-4.40039 0 -8 3.59961 -8 8zM512 -56v152h64v-152
c0 -4.40039 -3.59961 -8 -8 -8h-48c-4.40039 0 -8 3.59961 -8 8zM632 208c4.40039 0 8 -3.59961 8 -8v-16c0 -4.40039 -3.59961 -8 -8 -8h-624c-4.40039 0 -8 3.59961 -8 8v16c0 4.40039 3.59961 8 8 8h624z"/>
			<glyph glyph-name="box" unicode="&#xf466;" horiz-adv-x="512"
				   d="M509.5 263.4c1.7002 -4.90039 2.5 -10 2.5 -15.2002v-264.2c0 -26.5 -21.5 -48 -48 -48h-416c-26.5 0 -48 21.5 -48 48v264.2c0 5.2002 0.900391 10.2998 2.5 15.2002l50.5996 151.8c6.5 19.5996 24.8008 32.7998 45.5 32.7998h314.801
c20.6992 0 39 -13.2002 45.5 -32.7998zM32 248.2v-0.200195h208v168h-141.4c-6.89941 0 -13 -4.40039 -15.1992 -10.9004l-50.6006 -151.8c-0.5 -1.7002 -0.799805 -3.39941 -0.799805 -5.09961zM480 -16v232h-448v-232c0 -8.7998 7.2002 -16 16 -16h416
c8.7998 0 16 7.2002 16 16zM480 248v0.200195c0 1.7998 -0.299805 3.5 -0.799805 5.09961l-50.6006 151.8c-2.19922 6.5 -8.2998 10.9004 -15.1992 10.9004h-141.4v-168h208z"/>
			<glyph glyph-name="box-check" unicode="&#xf467;"
				   d="M492.5 314.6c84.5 -20.0996 147.5 -95.8994 147.5 -186.6c0 -106 -86 -192 -192 -192h-400c-26.5 0 -48 21.5 -48 48v264.2c0 5.2002 0.900391 10.2998 2.5 15.2002l50.5996 151.8c6.5 19.5996 24.8008 32.7998 45.5 32.7998h314.801
c20.6992 0 39 -13.2002 45.5 -32.7998zM272 416v-159.9h33.2002c35.0996 39.2002 86 64 142.8 64c3.09961 0 6.09961 -0.399414 9.09961 -0.5l-28.5 85.5c-2.19922 6.5 -8.2998 10.9004 -15.1992 10.9004h-141.4zM83.4004 405.1l-49.7002 -149.1h206.3v160h-141.4
c-6.89941 0 -13 -4.40039 -15.1992 -10.9004zM48 -32h294c-51.7998 34.4004 -86 93.2002 -86 160c0 35 9.5 67.7002 25.9004 96h-249.9v-240c0 -8.7998 7.2002 -16 16 -16zM448 -32c88.2002 0 160 71.7998 160 160s-71.7998 160 -160 160s-160 -71.7998 -160 -160
s71.7998 -160 160 -160zM512.6 189.7l18.5 -18.7002c3.10059 -3.09961 3.10059 -8.09961 0 -11.2002l-94.1992 -93.5c-3.10059 -3.09961 -8.10059 -3.09961 -11.2002 0l-54.4004 54.9004c-3.09961 3.09961 -3.09961 8.09961 0 11.2002l18.7002 18.5996
c3.09961 3.09961 8.09961 3.09961 11.2002 0l30.2998 -30.5996l69.9004 69.2998c3.09961 3.09961 8.09961 3.09961 11.1992 0z"/>
			<glyph glyph-name="boxes" unicode="&#xf468;"
				   d="M624 224c8.7998 0 16 -7.2002 16 -16v-256c0 -8.7998 -7.2002 -16 -16 -16h-608c-8.7998 0 -16 7.2002 -16 16v256c0 8.7998 7.2002 16 16 16h144v208c0 8.7998 7.2002 16 16 16h288c8.7998 0 16 -7.2002 16 -16v-208h144zM448 192v-62.2998l32 10.7002l32 -10.7002
v62.2998h-64zM352 416h-64v-62.2998l32 10.7002l32 -10.7002v62.2998zM192 416v-192h256v192h-64v-106.7l-64 21.2998l-64 -21.2998v106.7h-64zM192 192h-64v-62.2998l32 10.7002l32 -10.7002v62.2998zM32 192v-224h272v224h-80v-106.7l-64 21.2998l-64 -21.2998v106.7h-64z
M608 -32v224h-64v-106.7l-64 21.2998l-64 -21.2998v106.7h-80v-224h272z"/>
			<glyph glyph-name="briefcase-medical" unicode="&#xf469;" horiz-adv-x="512"
				   d="M344 160c4.40039 0 8 -3.59961 8 -8v-48c0 -4.40039 -3.59961 -8 -8 -8h-56v-56c0 -4.40039 -3.59961 -8 -8 -8h-48c-4.40039 0 -8 3.59961 -8 8v56h-56c-4.40039 0 -8 3.59961 -8 8v48c0 4.40039 3.59961 8 8 8h56v56c0 4.40039 3.59961 8 8 8h48
c4.40039 0 8 -3.59961 8 -8v-56h56zM464 320c26.5 0 48 -21.5 48 -48v-288c0 -26.5 -21.5 -48 -48 -48h-416c-26.5 0 -48 21.5 -48 48v288c0 26.5 21.5 48 48 48h112v72c0 13.2998 10.7002 24 24 24h144c13.2998 0 24 -10.7002 24 -24v-72h112zM192 384v-64h128v64h-128z
M480 -16v288c0 8.7998 -7.2002 16 -16 16h-416c-8.7998 0 -16 -7.2002 -16 -16v-288c0 -8.7998 7.2002 -16 16 -16h416c8.7998 0 16 7.2002 16 16z"/>
			<glyph glyph-name="burn" unicode="&#xf46a;" horiz-adv-x="384"
				   d="M192 448c111.8 -100.9 192 -220.6 192 -300.5c0 -124.5 -79 -211.5 -192 -211.5s-192 87 -192 211.5c0 79.5996 79.7002 199.2 192 300.5zM98.9004 62.7998c0 -48.5 28.8994 -84.2002 72.3994 -92.7002c6.7998 -0.899414 13.5 -2.09961 20.7002 -2.09961
s13.9004 1.2998 20.7002 2.09961c43.5 8.60059 72.3994 44.2002 72.3994 92.7002c0 13.2998 -4.19922 61.2002 -93.0996 161.2c-88.9004 -100 -93.0996 -147.9 -93.0996 -161.2zM310.9 23.0996c25.7998 31.3008 41.0996 74 41.0996 124.4c0 90.7998 -122.6 215.9 -160 251.9
c-37.4004 -36.1006 -160 -161.101 -160 -251.9c0 -50.4004 15.2998 -93.0996 41.0996 -124.4c-3.69922 12.4004 -6.19922 25.5 -6.19922 39.7002c0 80.7998 112.199 194.9 125.1 209.4c12.4004 -13.9004 125.1 -128.5 125.1 -209.4
c0 -14.2002 -2.5 -27.2998 -6.19922 -39.7002z"/>
			<glyph glyph-name="capsules" unicode="&#xf46b;" horiz-adv-x="544"
				   d="M529 151.2c14.9004 -25.7998 18.9004 -55.7998 11.0996 -84.5c-7.69922 -28.7998 -26.0996 -52.7998 -51.8994 -67.7002c-17.5 -10.0996 -36.6006 -14.9004 -55.5 -14.9004c-38.6006 0 -76.2002 20 -96.7998 55.7002l-111.5 193.101
c-0.200195 0.299805 -0.200195 0.599609 -0.400391 0.899414v-153.8c0 -61.7998 -50.2002 -112 -112 -112s-112 50.2002 -112 112v224c0 61.7998 50.2002 112 112 112c51.4004 0 94.2998 -35 107.4 -82.2002c9.2998 20.7998 24.5996 39.1006 45.7998 51.2998
c53.2998 30.7002 121.5 12.4004 152.3 -40.7998zM112 384c-44.0996 0 -80 -35.9004 -80 -80v-112h160v112c0 44.0996 -35.9004 80 -80 80zM112 0c44.0996 0 80 35.9004 80 80v80h-160v-80c0 -44.0996 35.9004 -80 80 -80zM281.2 357.5
c-38.1006 -21.9004 -51.1006 -70.7002 -29.2002 -108.8l47.7002 -82.2998l137.899 79.5996l-47.5996 82.4004c-20.5996 35.5996 -68.4004 52.3994 -108.8 29.0996zM509.4 74.7998c5.5 20.6006 2.69922 42.1006 -8 60.2998l-47.9004 83l-137.9 -79.5996l47.9004 -83
c22 -37.9004 70.7998 -51 108.8 -29.0996c18.4004 10.6992 31.6006 27.8994 37.1006 48.3994z"/>
			<glyph glyph-name="clipboard-check" unicode="&#xf46c;" horiz-adv-x="384"
				   d="M336 384c26.5 0 48 -21.5 48 -48v-352c0 -26.5 -21.5 -48 -48 -48h-288c-26.5 0 -48 21.5 -48 48v352c0 26.5 21.5 48 48 48h88.5996c-0.399414 2.59961 -0.599609 5.2998 -0.599609 8c0 30.9004 25.0996 56 56 56s56 -25.0996 56 -56
c0 -2.7002 -0.200195 -5.40039 -0.599609 -8h88.5996zM192 416c-13.2998 0 -24 -10.7002 -24 -24s10.7002 -24 24 -24s24 10.7002 24 24s-10.7002 24 -24 24zM352 -16v352c0 8.7998 -7.2002 16 -16 16h-48v-20c0 -6.59961 -5.40039 -12 -12 -12h-168
c-6.59961 0 -12 5.40039 -12 12v20h-48c-8.7998 0 -16 -7.2002 -16 -16v-352c0 -8.7998 7.2002 -16 16 -16h288c8.7998 0 16 7.2002 16 16zM293.1 220.4l8.7002 -8.5c4.60059 -4.7002 4.60059 -12.3008 -0.0996094 -17l-134.8 -133.7
c-4.7002 -4.7002 -12.3008 -4.7002 -17 0l-67.4004 67.5996c-4.7002 4.7002 -4.7002 12.2998 0 17l8.5 8.5c4.7002 4.7002 12.2998 4.7002 17 0l50.4004 -50.5996l117.699 116.8c4.7002 4.59961 12.3008 4.59961 17 -0.0996094z"/>
			<glyph glyph-name="clipboard-list" unicode="&#xf46d;" horiz-adv-x="384"
				   d="M280 208c4.40039 0 8 -3.59961 8 -8v-16c0 -4.40039 -3.59961 -8 -8 -8h-112c-4.40039 0 -8 3.59961 -8 8v16c0 4.40039 3.59961 8 8 8h112zM280 112c4.40039 0 8 -3.59961 8 -8v-16c0 -4.40039 -3.59961 -8 -8 -8h-112c-4.40039 0 -8 3.59961 -8 8v16
c0 4.40039 3.59961 8 8 8h112zM112 216c13.2998 0 24 -10.7002 24 -24s-10.7002 -24 -24 -24s-24 10.7002 -24 24s10.7002 24 24 24zM112 120c13.2998 0 24 -10.7002 24 -24s-10.7002 -24 -24 -24s-24 10.7002 -24 24s10.7002 24 24 24zM336 384c26.5 0 48 -21.5 48 -48
v-352c0 -26.5 -21.5 -48 -48 -48h-288c-26.5 0 -48 21.5 -48 48v352c0 26.5 21.5 48 48 48h88.5996c-0.399414 2.59961 -0.599609 5.2998 -0.599609 8c0 30.9004 25.0996 56 56 56s56 -25.0996 56 -56c0 -2.7002 -0.200195 -5.40039 -0.599609 -8h88.5996zM192 416
c-13.2998 0 -24 -10.7002 -24 -24s10.7002 -24 24 -24s24 10.7002 24 24s-10.7002 24 -24 24zM352 -16v352c0 8.7998 -7.2002 16 -16 16h-48v-20c0 -6.59961 -5.40039 -12 -12 -12h-168c-6.59961 0 -12 5.40039 -12 12v20h-48c-8.7998 0 -16 -7.2002 -16 -16v-352
c0 -8.7998 7.2002 -16 16 -16h288c8.7998 0 16 7.2002 16 16z"/>
			<glyph glyph-name="conveyor-belt" unicode="&#xf46e;"
				   d="M544 128c53 0 96 -43 96 -96s-43 -96 -96 -96h-448c-53 0 -96 43 -96 96s43 96 96 96h448zM544 -32c35.2998 0 64 28.7002 64 64s-28.7002 64 -64 64h-448c-35.2998 0 -64 -28.7002 -64 -64s28.7002 -64 64 -64h448zM144 80c26.5 0 48 -21.5 48 -48s-21.5 -48 -48 -48
s-48 21.5 -48 48s21.5 48 48 48zM144 16c8.7998 0 16 7.2002 16 16s-7.2002 16 -16 16s-16 -7.2002 -16 -16s7.2002 -16 16 -16zM496 80c26.5 0 48 -21.5 48 -48s-21.5 -48 -48 -48s-48 21.5 -48 48s21.5 48 48 48zM496 16c8.7998 0 16 7.2002 16 16s-7.2002 16 -16 16
s-16 -7.2002 -16 -16s7.2002 -16 16 -16zM320 80c26.5 0 48 -21.5 48 -48s-21.5 -48 -48 -48s-48 21.5 -48 48s21.5 48 48 48zM320 16c8.7998 0 16 7.2002 16 16s-7.2002 16 -16 16s-16 -7.2002 -16 -16s7.2002 -16 16 -16zM144 160c-8.7998 0 -16 7.2002 -16 16v256
c0 8.7998 7.2002 16 16 16h352c8.7998 0 16 -7.2002 16 -16v-256c0 -8.7998 -7.2002 -16 -16 -16h-352zM288 416v-76.2002l32 16l32 -16v76.2002h-64zM160 416v-224h320v224h-96v-128l-64 32l-64 -32v128h-96z"/>
			<glyph glyph-name="conveyor-belt-alt" unicode="&#xf46f;"
				   d="M544 128c53 0 96 -43 96 -96s-43 -96 -96 -96h-448c-53 0 -96 43 -96 96s43 96 96 96h448zM544 -32c35.2998 0 64 28.7002 64 64s-28.7002 64 -64 64h-448c-35.2998 0 -64 -28.7002 -64 -64s28.7002 -64 64 -64h448zM144 80c26.5 0 48 -21.5 48 -48s-21.5 -48 -48 -48
s-48 21.5 -48 48s21.5 48 48 48zM144 16c8.7998 0 16 7.2002 16 16s-7.2002 16 -16 16s-16 -7.2002 -16 -16s7.2002 -16 16 -16zM496 80c26.5 0 48 -21.5 48 -48s-21.5 -48 -48 -48s-48 21.5 -48 48s21.5 48 48 48zM496 16c8.7998 0 16 7.2002 16 16s-7.2002 16 -16 16
s-16 -7.2002 -16 -16s7.2002 -16 16 -16zM320 80c26.5 0 48 -21.5 48 -48s-21.5 -48 -48 -48s-48 21.5 -48 48s21.5 48 48 48zM320 16c8.7998 0 16 7.2002 16 16s-7.2002 16 -16 16s-16 -7.2002 -16 -16s7.2002 -16 16 -16zM112 160c-8.7998 0 -16 7.2002 -16 16v256
c0 8.7998 7.2002 16 16 16h256c8.7998 0 16 -7.2002 16 -16v-48h144c8.7998 0 16 -7.2002 16 -16v-192c0 -8.7998 -7.2002 -16 -16 -16h-416zM384 352v-160h128v160h-128zM128 416v-224h224v224h-224z"/>
			<glyph glyph-name="dolly" unicode="&#xf472;" horiz-adv-x="576"
				   d="M575.6 138.2c1.40039 -4.2002 -0.899414 -8.7002 -5.09961 -10.1006l-227.5 -76c5.59961 -10.8994 9 -23 9 -36.0996c0 -49.7998 -45.5 -88.9004 -97.2002 -78.2002c-31.0996 6.5 -55.8994 32.2002 -61.5 63.5c-5.7998 32.4004 8.10059 61.7002 31.4004 78.9004
l-96.7002 271.899c-6.7998 19.1006 -24.9004 31.9004 -45.2002 31.9004h-74.7998c-4.40039 0 -8 3.59961 -8 8v16c0 4.40039 3.59961 8 8 8h74.7998c33.9004 0 64.1006 -21.2998 75.5 -53.2998l18 -50.7002l234.8 78.2998c8.10059 2.7002 16.7002 2.10059 24.4004 -1.7002
c7.59961 -3.7998 13.2998 -10.3994 16 -18.5l74.5 -223.199l34.4004 11.5996c4.19922 1.40039 8.69922 -0.900391 10.0996 -5.09961zM187 281.9l66.9004 -188.2c5.7998 1.39941 11.7998 2.2998 18.0996 2.2998c18.7002 0 35.5996 -6.7002 49.2998 -17.4004l174.4 58.1006
l-74.5 223.3l-97.4004 -32.5l25 -74.9004c1.40039 -4.19922 -0.899414 -8.69922 -5.09961 -10.0996l-15.2002 -5.09961c-4.2002 -1.40039 -8.7002 0.899414 -10.0996 5.09961l-25 74.9004zM272 -32c26.5 0 48 21.5 48 48s-21.5 48 -48 48s-48 -21.5 -48 -48s21.5 -48 48 -48
z"/>
			<glyph glyph-name="dolly-empty" unicode="&#xf473;" horiz-adv-x="576"
				   d="M570.5 153.4l5.09961 -15.2002c1.40039 -4.2002 -0.899414 -8.7002 -5.09961 -10.1006l-227.5 -76c5.59961 -10.8994 9 -23 9 -36.0996c0 -49.7998 -45.5 -89 -97.2002 -78.2002c-31.0996 6.40039 -55.8994 32.2002 -61.5 63.5
c-5.7998 32.4004 8.10059 61.7002 31.4004 78.9004l-96.7002 271.899c-6.7998 19.1006 -24.9004 31.9004 -45.2002 31.9004h-74.7998c-4.40039 0 -8 3.59961 -8 8v16c0 4.40039 3.59961 8 8 8h74.7998c33.9004 0 64.1006 -21.2998 75.4004 -53.2998l95.7002 -269
c5.7998 1.39941 11.7998 2.2998 18.0996 2.2998c18.7002 0 35.5996 -6.7002 49.2998 -17.2998l239.101 79.7998c4.19922 1.40039 8.69922 -0.900391 10.0996 -5.09961zM272 -32c26.5 0 48 21.5 48 48s-21.5 48 -48 48s-48 -21.5 -48 -48s21.5 -48 48 -48z"/>
			<glyph glyph-name="dolly-flatbed" unicode="&#xf474;"
				   d="M208 96c-8.7998 0 -16 7.2002 -16 16v256c0 8.7998 7.2002 16 16 16h384c8.7998 0 16 -7.2002 16 -16v-256c0 -8.7998 -7.2002 -16 -16 -16h-384zM352 352v-80.7002l36.0996 14.4004l11.9004 4.7998l11.9004 -4.7998l36.0996 -14.4004v80.7002h-96zM224 352v-224h352v224
h-96v-128l-80 32l-80 -32v128h-96zM632 32c4.40039 0 8 -3.59961 8 -8v-16c0 -4.40039 -3.59961 -8 -8 -8h-90.7998c1.7002 -5 2.89941 -10.4004 2.89941 -16c0 -26.5 -21.5 -48 -48 -48s-48 21.5 -48 48c0 5.59961 1.10059 11 2.90039 16h-197.9
c1.7002 -5 2.90039 -10.4004 2.90039 -16c0 -26.5 -21.5 -48 -48 -48s-48 21.5 -48 48c0 5.59961 1.09961 11 2.90039 16h-58.9004c-4.40039 0 -8 3.59961 -8 8v408h-88c-4.40039 0 -8 3.59961 -8 8v16c0 4.40039 3.59961 8 8 8h112c4.40039 0 8 -3.59961 8 -8v-408h504z
M208 -32c8.7998 0 16 7.2002 16 16s-7.2002 16 -16 16s-16 -7.2002 -16 -16s7.2002 -16 16 -16zM496 -32c8.7998 0 16 7.2002 16 16s-7.2002 16 -16 16s-16 -7.2002 -16 -16s7.2002 -16 16 -16z"/>
			<glyph glyph-name="dolly-flatbed-alt" unicode="&#xf475;"
				   d="M208 96c-8.7998 0 -16 7.2002 -16 16v256c0 8.7998 7.2002 16 16 16h320c8.7998 0 16 -7.2002 16 -16v-112h48c8.7998 0 16 -7.2002 16 -16v-128c0 -8.7998 -7.2002 -16 -16 -16h-384zM416 352v-96h96v96h-96zM416 224v-96h160v96h-160zM224 352v-224h160v224h-160z
M632 32c4.40039 0 8 -3.59961 8 -8v-16c0 -4.40039 -3.59961 -8 -8 -8h-90.7998c1.7002 -5 2.89941 -10.4004 2.89941 -16c0 -26.5 -21.5 -48 -48 -48s-48 21.5 -48 48c0 5.59961 1.10059 11 2.90039 16h-197.9c1.7002 -5 2.90039 -10.4004 2.90039 -16
c0 -26.5 -21.5 -48 -48 -48s-48 21.5 -48 48c0 5.59961 1.09961 11 2.90039 16h-58.9004c-4.40039 0 -8 3.59961 -8 8v408h-88c-4.40039 0 -8 3.59961 -8 8v16c0 4.40039 3.59961 8 8 8h112c4.40039 0 8 -3.59961 8 -8v-408h504zM208 -32c8.7998 0 16 7.2002 16 16
s-7.2002 16 -16 16s-16 -7.2002 -16 -16s7.2002 -16 16 -16zM496 -32c8.7998 0 16 7.2002 16 16s-7.2002 16 -16 16s-16 -7.2002 -16 -16s7.2002 -16 16 -16z"/>
			<glyph glyph-name="first-aid" unicode="&#xf479;" horiz-adv-x="576"
				   d="M200 160c-4.40039 0 -8 3.59961 -8 8v48c0 4.40039 3.59961 8 8 8h56v56c0 4.40039 3.59961 8 8 8h48c4.40039 0 8 -3.59961 8 -8v-56h56c4.40039 0 8 -3.59961 8 -8v-48c0 -4.40039 -3.59961 -8 -8 -8h-56v-56c0 -4.40039 -3.59961 -8 -8 -8h-48
c-4.40039 0 -8 3.59961 -8 8v56h-56zM528 416c26.5 0 48 -21.5 48 -48v-352c0 -26.5 -21.5 -48 -48 -48h-480c-26.5 0 -48 21.5 -48 48v352c0 26.5 21.5 48 48 48h480zM96 0v384h-48c-8.7998 0 -16 -7.2002 -16 -16v-352c0 -8.7998 7.2002 -16 16 -16h48zM448 0v384h-320
v-384h320zM544 16v352c0 8.7998 -7.2002 16 -16 16h-48v-384h48c8.7998 0 16 7.2002 16 16z"/>
			<glyph glyph-name="forklift" unicode="&#xf47a;"
				   d="M416 79.5996c19.2998 -14.5996 32 -37.5 32 -63.5996c0 -44.2002 -35.7998 -80 -80 -80c-38.7002 0 -71 27.5 -78.4004 64h-131.199c-7.40039 -36.5 -39.7002 -64 -78.4004 -64c-44.2002 0 -80 35.7998 -80 80v192c0 26.5 21.5 48 48 48h48v112c0 26.5 21.5 48 48 48
h144.3c19.2998 0 36.6006 -11.4004 44.2002 -29.0996l78.2998 -182.9c3.40039 -8 5.2002 -16.5 5.2002 -25.2002v-99.2002zM128 368v-120.6l88.5 -75.9004c8.7002 -7.40039 19.7998 -11.5 31.2002 -11.5h136.3v18.9004c0 4.39941 -0.900391 8.59961 -2.59961 12.5996
l-78.4004 182.8c-2.5 5.90039 -8.2998 9.7002 -14.7002 9.7002h-144.3c-8.7998 0 -16 -7.2002 -16 -16zM80 -32c26.5 0 48 21.5 48 48s-21.5 48 -48 48s-48 -21.5 -48 -48s21.5 -48 48 -48zM289.6 32c7.40039 36.5 39.7002 64 78.4004 64c5.5 0 10.7998 -0.5 16 -1.59961
v33.5996h-136.4c-19 0 -37.5 6.90039 -52 19.2998l-89.5 76.7002h-58.0996c-8.7998 0 -16 -7.2002 -16 -16v-128.4c13.4004 10.2002 29.9004 16.4004 48 16.4004c38.7002 0 71 -27.5 78.4004 -64h131.199zM368 -32c26.5 0 48 21.5 48 48s-21.5 48 -48 48s-48 -21.5 -48 -48
s21.5 -48 48 -48zM632 32c4.40039 0 8 -3.59961 8 -8v-16c0 -4.40039 -3.59961 -8 -8 -8h-144c-4.40039 0 -8 3.59961 -8 8v432c0 4.40039 3.59961 8 8 8h16c4.40039 0 8 -3.59961 8 -8v-408h120z"/>
			<glyph glyph-name="hospital-alt" unicode="&#xf47d;" horiz-adv-x="576"
				   d="M468 64c6.59961 0 12 -5.40039 12 -12v-40c0 -6.59961 -5.40039 -12 -12 -12h-40c-6.59961 0 -12 5.40039 -12 12v40c0 6.59961 5.40039 12 12 12h40zM468 192c6.59961 0 12 -5.40039 12 -12v-40c0 -6.59961 -5.40039 -12 -12 -12h-40c-6.59961 0 -12 5.40039 -12 12v40
c0 6.59961 5.40039 12 12 12h40zM308 64c6.59961 0 12 -5.40039 12 -12v-40c0 -6.59961 -5.40039 -12 -12 -12h-40c-6.59961 0 -12 5.40039 -12 12v40c0 6.59961 5.40039 12 12 12h40zM308 192c6.59961 0 12 -5.40039 12 -12v-40c0 -6.59961 -5.40039 -12 -12 -12h-40
c-6.59961 0 -12 5.40039 -12 12v40c0 6.59961 5.40039 12 12 12h40zM148 64c6.59961 0 12 -5.40039 12 -12v-40c0 -6.59961 -5.40039 -12 -12 -12h-40c-6.59961 0 -12 5.40039 -12 12v40c0 6.59961 5.40039 12 12 12h40zM148 192c6.59961 0 12 -5.40039 12 -12v-40
c0 -6.59961 -5.40039 -12 -12 -12h-40c-6.59961 0 -12 5.40039 -12 12v40c0 6.59961 5.40039 12 12 12h40zM330 336c3.2998 0 6 -2.7002 6 -6v-20c0 -3.2998 -2.7002 -6 -6 -6h-26v-26c0 -3.2998 -2.7002 -6 -6 -6h-20c-3.2998 0 -6 2.7002 -6 6v26h-26
c-3.2998 0 -6 2.7002 -6 6v20c0 3.2998 2.7002 6 6 6h26v26c0 3.2998 2.7002 6 6 6h20c3.2998 0 6 -2.7002 6 -6v-26h26zM528 320c26.5 0 48 -21.5 48 -48v-328c0 -4.40039 -3.59961 -8 -8 -8h-16c-4.40039 0 -8 3.59961 -8 8v328c0 8.7998 -7.2002 16 -16 16h-144v112
c0 8.7998 -7.2002 16 -16 16h-160c-8.7998 0 -16 -7.2002 -16 -16v-112h-144c-8.7998 0 -16 -7.2002 -16 -16v-328c0 -4.40039 -3.59961 -8 -8 -8h-16c-4.40039 0 -8 3.59961 -8 8v328c0 26.5 21.5 48 48 48h112v80c0 26.5 21.5 48 48 48h160c26.5 0 48 -21.5 48 -48v-80
h112z"/>
			<glyph glyph-name="hospital-symbol" unicode="&#xf47e;" horiz-adv-x="512"
				   d="M344 304c4.40039 0 8 -3.59961 8 -8v-208c0 -4.40039 -3.59961 -8 -8 -8h-16c-4.40039 0 -8 3.59961 -8 8v88h-128v-88c0 -4.40039 -3.59961 -8 -8 -8h-16c-4.40039 0 -8 3.59961 -8 8v208c0 4.40039 3.59961 8 8 8h16c4.40039 0 8 -3.59961 8 -8v-88h128v88
c0 4.40039 3.59961 8 8 8h16zM256 448c141.4 0 256 -114.6 256 -256s-114.6 -256 -256 -256s-256 114.6 -256 256s114.6 256 256 256zM256 -32c123.5 0 224 100.5 224 224s-100.5 224 -224 224s-224 -100.5 -224 -224s100.5 -224 224 -224z"/>
			<glyph glyph-name="notes-medical" unicode="&#xf481;" horiz-adv-x="384"
				   d="M336 384c26.5 0 48 -21.5 48 -48v-352c0 -26.5 -21.5 -48 -48 -48h-288c-26.5 0 -48 21.5 -48 48v352c0 26.5 21.5 48 48 48h88.5996c-0.399414 2.59961 -0.599609 5.2998 -0.599609 8c0 30.9004 25.0996 56 56 56s56 -25.0996 56 -56
c0 -2.7002 -0.200195 -5.40039 -0.599609 -8h88.5996zM192 416c-13.2998 0 -24 -10.7002 -24 -24s10.7002 -24 24 -24s24 10.7002 24 24s-10.7002 24 -24 24zM352 -16v352c0 8.7998 -7.2002 16 -16 16h-48v-20c0 -6.59961 -5.40039 -12 -12 -12h-168
c-6.59961 0 -12 5.40039 -12 12v20h-48c-8.7998 0 -16 -7.2002 -16 -16v-352c0 -8.7998 7.2002 -16 16 -16h288c8.7998 0 16 7.2002 16 16zM280 160c4.40039 0 8 -3.59961 8 -8v-48c0 -4.40039 -3.59961 -8 -8 -8h-56v-56c0 -4.40039 -3.59961 -8 -8 -8h-48
c-4.40039 0 -8 3.59961 -8 8v56h-56c-4.40039 0 -8 3.59961 -8 8v48c0 4.40039 3.59961 8 8 8h56v56c0 4.40039 3.59961 8 8 8h48c4.40039 0 8 -3.59961 8 -8v-56h56z"/>
			<glyph glyph-name="pallet" unicode="&#xf482;"
				   d="M144 160c-8.7998 0 -16 7.2002 -16 16v256c0 8.7998 7.2002 16 16 16h352c8.7998 0 16 -7.2002 16 -16v-256c0 -8.7998 -7.2002 -16 -16 -16h-352zM288 416v-76.2002l32 16l32 -16v76.2002h-64zM160 416v-224h320v224h-96v-128l-64 32l-64 -32v128h-96zM632 96h-56v-128
h56c4.40039 0 8 -3.59961 8 -8v-16c0 -4.40039 -3.59961 -8 -8 -8h-624c-4.40039 0 -8 3.59961 -8 8v16c0 4.40039 3.59961 8 8 8h56v128h-56c-4.40039 0 -8 3.59961 -8 8v16c0 4.40039 3.59961 8 8 8h624c4.40039 0 8 -3.59961 8 -8v-16c0 -4.40039 -3.59961 -8 -8 -8z
M160 -32v128h-64v-128h64zM448 -32v128h-256v-128h256zM544 -32v128h-64v-128h64z"/>
			<glyph glyph-name="pallet-alt" unicode="&#xf483;"
				   d="M112 160c-8.7998 0 -16 7.2002 -16 16v256c0 8.7998 7.2002 16 16 16h224c8.7998 0 16 -7.2002 16 -16v-48h176c8.7998 0 16 -7.2002 16 -16v-192c0 -8.7998 -7.2002 -16 -16 -16h-416zM352 352v-160h160v160h-160zM128 416v-224h192v224h-192zM632 96h-56v-128h56
c4.40039 0 8 -3.59961 8 -8v-16c0 -4.40039 -3.59961 -8 -8 -8h-624c-4.40039 0 -8 3.59961 -8 8v16c0 4.40039 3.59961 8 8 8h56v128h-56c-4.40039 0 -8 3.59961 -8 8v16c0 4.40039 3.59961 8 8 8h624c4.40039 0 8 -3.59961 8 -8v-16c0 -4.40039 -3.59961 -8 -8 -8z
M160 -32v128h-64v-128h64zM448 -32v128h-256v-128h256zM544 -32v128h-64v-128h64z"/>
			<glyph glyph-name="pills" unicode="&#xf484;" horiz-adv-x="576"
				   d="M112 416c61.7998 0 112 -50.2002 112 -112v-224c0 -61.7998 -50.2002 -112 -112 -112s-112 50.2002 -112 112v224c0 61.7998 50.2002 112 112 112zM192 80v80h-160v-80c0 -44.0996 35.9004 -80 80 -80s80 35.9004 80 80zM192 192v112c0 44.0996 -35.9004 80 -80 80
s-80 -35.9004 -80 -80v-112h160zM416 288c88.4004 0 160 -71.5996 160 -160s-71.5996 -160 -160 -160s-160 71.5996 -160 160s71.5996 160 160 160zM416 0c29.5996 0 56.4004 10.4004 78.2002 27.2002l-178.9 178.899c-16.8994 -21.6992 -27.2998 -48.5 -27.2998 -78.0996
c0 -70.7002 57.2998 -128 128 -128zM516.7 49.9004c16.8994 21.6992 27.2998 48.5 27.2998 78.0996c0 70.7002 -57.2998 128 -128 128c-29.5996 0 -56.4004 -10.5 -78.0996 -27.2998z"/>
			<glyph glyph-name="prescription-bottle" unicode="&#xf485;" horiz-adv-x="384"
				   d="M360 448c13.2002 0 24 -10.7998 24 -24v-80c0 -13.2002 -10.7998 -24 -24 -24h-8v-352c0 -17.5996 -14.4004 -32 -32 -32h-256c-17.5996 0 -32 14.4004 -32 32v352h-8c-13.2002 0 -24 10.7998 -24 24v80c0 13.2002 10.7998 24 24 24h336zM320 -32v352h-256v-64h88
c4.40039 0 8 -3.59961 8 -8v-16c0 -4.40039 -3.59961 -8 -8 -8h-88v-64h88c4.40039 0 8 -3.59961 8 -8v-16c0 -4.40039 -3.59961 -8 -8 -8h-88v-64h88c4.40039 0 8 -3.59961 8 -8v-16c0 -4.40039 -3.59961 -8 -8 -8h-88v-64h256zM352 352v64h-320v-64h320z"/>
			<glyph glyph-name="prescription-bottle-alt" unicode="&#xf486;" horiz-adv-x="384"
				   d="M104 128c-4.40039 0 -8 3.59961 -8 8v48c0 4.40039 3.59961 8 8 8h56v56c0 4.40039 3.59961 8 8 8h48c4.40039 0 8 -3.59961 8 -8v-56h56c4.40039 0 8 -3.59961 8 -8v-48c0 -4.40039 -3.59961 -8 -8 -8h-56v-56c0 -4.40039 -3.59961 -8 -8 -8h-48
c-4.40039 0 -8 3.59961 -8 8v56h-56zM360 448c13.2002 0 24 -10.7998 24 -24v-80c0 -13.2002 -10.7998 -24 -24 -24h-8v-352c0 -17.5996 -14.4004 -32 -32 -32h-256c-17.5996 0 -32 14.4004 -32 32v352h-8c-13.2002 0 -24 10.7998 -24 24v80c0 13.2002 10.7998 24 24 24h336
zM320 -32v352h-256v-352h256zM352 352v64h-320v-64h320z"/>
			<glyph glyph-name="procedures" unicode="&#xf487;"
				   d="M144 64c-44.0996 0 -80 35.9004 -80 80s35.9004 80 80 80s80 -35.9004 80 -80s-35.9004 -80 -80 -80zM144 192c-26.5 0 -48 -21.5 -48 -48s21.5 -48 48 -48s48 21.5 48 48s-21.5 48 -48 48zM528 224c61.9004 0 112 -50.0996 112 -112v-168c0 -4.40039 -3.59961 -8 -8 -8
h-16c-4.40039 0 -8 3.59961 -8 8v56h-576v-56c0 -4.40039 -3.59961 -8 -8 -8h-16c-4.40039 0 -8 3.59961 -8 8v368c0 4.40039 3.59961 8 8 8h16c4.40039 0 8 -3.59961 8 -8v-280h224v176c0 8.7998 7.2002 16 16 16h256zM608 32v80c0 44.2002 -35.7998 80 -80 80h-240v-160
h320zM136 352c-4.40039 0 -8 3.59961 -8 8v16c0 4.40039 3.59961 8 8 8h140.9c3.09961 0 5.7998 -1.7002 7.19922 -4.40039l19.9004 -39.7998l49.7002 99.4004c5.89941 11.7998 22.7002 11.7998 28.5996 0l27.6006 -55.2002h102.1c8.7998 0 16 -7.2002 16 -16
s-7.2002 -16 -16 -16h-121.9l-22.0996 44.2002l-49.7002 -99.4004c-5.89941 -11.7998 -22.7002 -11.7998 -28.5996 0l-27.6006 55.2002h-126.1z"/>
			<glyph glyph-name="scanner-keyboard" unicode="&#xf489;" horiz-adv-x="576"
				   d="M400 352c8.7998 0 16 -7.2002 16 -16v-169.4c0 -4.19922 -1.7002 -8.2998 -4.7002 -11.2998l-27.2998 -27.2998v-144c0 -26.5 -21.5 -48 -48 -48h-256c-26.5 0 -48 21.5 -48 48v144l-27.2998 27.2998c-3 3 -4.7002 7.10059 -4.7002 11.2998v169.4
c0 8.7998 7.2002 16 16 16h384zM384 173.3v146.7h-352v-146.7l22.5996 -22.5996l9.40039 -9.40039v-157.3c0 -8.7998 7.2002 -16 16 -16h256c8.7998 0 16 7.2002 16 16v157.3zM96 192c-8.7998 0 -16 7.2002 -16 16v64c0 8.7998 7.2002 16 16 16h224
c8.7998 0 16 -7.2002 16 -16v-64c0 -8.7998 -7.2002 -16 -16 -16h-224zM112 256v-32h192v32h-192zM184 128c4.40039 0 8 -3.59961 8 -8v-16c0 -4.40039 -3.59961 -8 -8 -8h-80c-4.40039 0 -8 3.59961 -8 8v16c0 4.40039 3.59961 8 8 8h80zM312 128
c4.40039 0 8 -3.59961 8 -8v-16c0 -4.40039 -3.59961 -8 -8 -8h-80c-4.40039 0 -8 3.59961 -8 8v16c0 4.40039 3.59961 8 8 8h80zM184 64c4.40039 0 8 -3.59961 8 -8v-16c0 -4.40039 -3.59961 -8 -8 -8h-80c-4.40039 0 -8 3.59961 -8 8v16c0 4.40039 3.59961 8 8 8h80z
M312 64c4.40039 0 8 -3.59961 8 -8v-16c0 -4.40039 -3.59961 -8 -8 -8h-80c-4.40039 0 -8 3.59961 -8 8v16c0 4.40039 3.59961 8 8 8h80zM256 440v-56h-64v56c0 4.40039 3.59961 8 8 8h48c4.40039 0 8 -3.59961 8 -8zM320 440v-56h-32v56c0 4.40039 3.59961 8 8 8h16
c4.40039 0 8 -3.59961 8 -8zM568 448c4.40039 0 8 -3.59961 8 -8v-272c0 -4.40039 -3.59961 -8 -8 -8h-48c-4.40039 0 -8 3.59961 -8 8v272c0 4.40039 3.59961 8 8 8h48zM472 448c4.40039 0 8 -3.59961 8 -8v-272c0 -4.40039 -3.59961 -8 -8 -8h-16
c-4.40039 0 -8 3.59961 -8 8v272c0 4.40039 3.59961 8 8 8h16zM408 448c4.40039 0 8 -3.59961 8 -8v-56h-64v56c0 4.40039 3.59961 8 8 8h48z"/>
			<glyph glyph-name="shipping-fast" unicode="&#xf48b;"
				   d="M280 256h-240c-4.40039 0 -8 3.59961 -8 8v16c0 4.40039 3.59961 8 8 8h240c4.40039 0 8 -3.59961 8 -8v-16c0 -4.40039 -3.59961 -8 -8 -8zM632 64c4.40039 0 8 -3.59961 8 -8v-16c0 -4.40039 -3.59961 -8 -8 -8h-57.5996c1 -5.2002 1.59961 -10.5 1.59961 -16
c0 -44.2002 -35.7998 -80 -80 -80s-80 35.7998 -80 80c0 5.5 0.5 10.7998 1.59961 16h-195.199c1 -5.2002 1.59961 -10.5 1.59961 -16c0 -44.2002 -35.7998 -80 -80 -80s-80 35.7998 -80 80v144h32v-80.4004c13.4004 10.2002 29.9004 16.4004 48 16.4004
c26 0 49 -12.7002 63.5996 -32h176.4v305.4c0 8.09961 -7.7998 14.5996 -17.4004 14.5996h-253.199c-9.60059 0 -17.4004 -6.5 -17.4004 -14.5996v-17.4004h152c4.40039 0 8 -3.59961 8 -8v-16c0 -4.40039 -3.59961 -8 -8 -8h-240c-4.40039 0 -8 3.59961 -8 8v16
c0 4.40039 3.59961 8 8 8h56v17.4004c0 25.6992 22.2002 46.5996 49.4004 46.5996h253.199c27.2002 0 49.4004 -20.9004 49.4004 -46.5996v-49.4004h44.0996c16.9004 0 33.4004 -6.7998 45.2002 -18.7998l83.9004 -83.9004c12 -11.8994 18.7998 -28.3994 18.7998 -45.2002
v-108.1h24zM144 -32c26.5 0 48 21.5 48 48s-21.5 48 -48 48s-48 -21.5 -48 -48s21.5 -48 48 -48zM416 288v-96.0996h152.4c-0.700195 0.899414 -1 2 -1.80078 2.7998l-83.8994 83.8994c-5.90039 6 -14.2002 9.40039 -22.6006 9.40039h-44.0996zM496 -32
c26.5 0 48 21.5 48 48s-21.5 48 -48 48s-48 -21.5 -48 -48s21.5 -48 48 -48zM576 64v96h-160v-96h16.4004c14.5996 19.2998 37.5996 32 63.5996 32s49 -12.7002 63.5996 -32h16.4004zM256 200c0 -4.40039 -3.59961 -8 -8 -8h-240c-4.40039 0 -8 3.59961 -8 8v16
c0 4.40039 3.59961 8 8 8h240c4.40039 0 8 -3.59961 8 -8v-16z"/>
			<glyph glyph-name="shipping-timed" unicode="&#xf48c;"
				   d="M208 352c66.2002 0 120 -53.7998 120 -120s-53.7998 -120 -120 -120s-120 53.7998 -120 120s53.7998 120 120 120zM208 144c48.5 0 88 39.5 88 88s-39.5 88 -88 88s-88 -39.5 -88 -88s39.5 -88 88 -88zM248 224c4.40039 0 8 -3.59961 8 -8v-16
c0 -4.40039 -3.59961 -8 -8 -8h-48c-4.40039 0 -8 3.59961 -8 8v80c0 4.40039 3.59961 8 8 8h16c4.40039 0 8 -3.59961 8 -8v-56h24zM632 64c4.40039 0 8 -3.59961 8 -8v-16c0 -4.40039 -3.59961 -8 -8 -8h-57.5996c1 -5.2002 1.59961 -10.5 1.59961 -16
c0 -44.2002 -35.7998 -80 -80 -80s-80 35.7998 -80 80c0 5.5 0.5 10.7998 1.59961 16h-195.199c1 -5.2002 1.59961 -10.5 1.59961 -16c0 -44.2002 -35.7998 -80 -80 -80s-80 35.7998 -80 80c0 5.5 0.5 10.7998 1.59961 16h-16.1992
c-27.2002 0 -49.4004 20.9004 -49.4004 46.5996v290.801c0 25.6992 22.2002 46.5996 49.4004 46.5996h317.199c27.2002 0 49.4004 -20.9004 49.4004 -46.5996v-49.4004h44.0996c16.9004 0 33.4004 -6.7998 45.2002 -18.7998l83.9004 -83.9004
c12 -11.8994 18.7998 -28.3994 18.7998 -45.2002v-108.1h24zM144 -32c26.5 0 48 21.5 48 48s-21.5 48 -48 48s-48 -21.5 -48 -48s21.5 -48 48 -48zM384 64v305.4c0 8.09961 -7.7998 14.5996 -17.4004 14.5996h-317.199c-9.60059 0 -17.4004 -6.5 -17.4004 -14.5996v-290.801
c0 -8.09961 7.7998 -14.5996 17.4004 -14.5996h31c14.5996 19.2998 37.5996 32 63.5996 32s49 -12.7002 63.5996 -32h176.4zM416 288v-96.0996h152.4c-0.700195 0.899414 -1 2 -1.80078 2.7998l-83.8994 83.8994c-5.90039 6 -14.2002 9.40039 -22.6006 9.40039h-44.0996z
M496 -32c26.5 0 48 21.5 48 48s-21.5 48 -48 48s-48 -21.5 -48 -48s21.5 -48 48 -48zM576 64v96h-160v-96h16.4004c14.5996 19.2998 37.5996 32 63.5996 32s49 -12.7002 63.5996 -32h16.4004z"/>
			<glyph glyph-name="smoking" unicode="&#xf48d;"
				   d="M632 96c4.40039 0 8 -3.59961 8 -8v-144c0 -4.40039 -3.59961 -8 -8 -8h-16c-4.40039 0 -8 3.59961 -8 8v144c0 4.40039 3.59961 8 8 8h16zM568 96c4.40039 0 8 -3.59961 8 -8v-144c0 -4.40039 -3.59961 -8 -8 -8h-16c-4.40039 0 -8 3.59961 -8 8v144
c0 4.40039 3.59961 8 8 8h16zM488 96c13.2002 0 24 -10.7998 24 -24v-112c0 -13.2002 -10.7998 -24 -24 -24h-440c-26.5 0 -48 21.5 -48 48v64c0 26.5 21.5 48 48 48h440zM192 -32v96h-144c-8.7998 0 -16 -7.2002 -16 -16v-64c0 -8.7998 7.2002 -16 16 -16h144zM480 -32v96
h-256v-96h256zM556.4 354.5c52.3994 -34.9004 83.5996 -93.2998 83.5996 -156.2v-30.2998c0 -4.40039 -3.59961 -8 -8 -8h-16c-4.40039 0 -8 3.59961 -8 8v30.2998c0 52.1006 -25.7998 100.4 -69 129.4c-16.7002 11.2002 -27 29.7998 -27 50v62.2998
c0 4.40039 3.59961 8 8 8h16c4.40039 0 8 -3.59961 8 -8v-63.2998c0 -9 4.90039 -17.2002 12.4004 -22.2002zM519.7 302.1c35.2002 -22.8994 56.2998 -61.7998 56.2998 -103.8v-30.2998c0 -4.40039 -3.59961 -8 -8 -8h-16c-4.40039 0 -8 3.59961 -8 8v30.2998
c0 30.6006 -15.0996 59 -40.4004 76.1006c-33.3994 22.5996 -55.5996 58.2998 -55.5996 98.5996v67c0 4.40039 3.59961 8 8 8h16c4.40039 0 8 -3.59961 8 -8v-61c0 -30.5 14.0996 -60.2998 39.7002 -76.9004z"/>
			<glyph glyph-name="syringe" unicode="&#xf48e;" horiz-adv-x="512"
				   d="M509.7 366.5c3.09961 -3.2002 3.09961 -8.2002 0 -11.4004l-11.2998 -11.2998c-3.10059 -3.09961 -8.2002 -3.09961 -11.3008 0l-28.2998 28.2998l-45.2998 -45.2998l73.5 -73.5c3.09961 -3.09961 3.09961 -8.2002 0 -11.2998l-11.2998 -11.2002
c-3.10059 -3.09961 -8.2002 -3.09961 -11.2998 0l-17 17l-227.2 -227.2c-17.5 -17.5996 -41.5 -25.5996 -65.4004 -23l-63.5996 7.10059l-66.2998 -66.2998c-3.10059 -3.10059 -8.2002 -3.10059 -11.3008 0l-11.2998 11.2998c-3.09961 3.09961 -3.09961 8.2002 0 11.2998
l66.2998 66.2998l-7.09961 63.6006c-2.59961 24.2998 5.7002 48.0996 23 65.3994l227.2 227.2l-17 17c-3.10059 3.09961 -3.10059 8.2002 0 11.2998l11.2998 11.2998c3.09961 3.10059 8.2002 3.10059 11.2998 0l17 -17l56.6006 -56.5996l45.2998 45.2998l-28.2998 28.2998
c-3.10059 3.10059 -3.10059 8.2002 0 11.3008l11.2998 11.2998c3.09961 3.09961 8.2002 3.09961 11.2998 0zM424.8 270.3l-90.5 90.6006l-45.2998 -45.3008l39.7998 -39.7998c3.10059 -3.09961 3.10059 -8.2002 0 -11.2998l-11.2998 -11.2998
c-3.09961 -3.10059 -8.2002 -3.10059 -11.2998 0l-39.6006 39.5996l-45.2998 -45.2998l39.6006 -39.5996c3.09961 -3.10059 3.09961 -8.2002 0 -11.3008l-11.3008 -11.2998c-3.09961 -3.09961 -8.19922 -3.09961 -11.2998 0l-39.5996 39.6006l-45.2998 -45.3008
l39.5996 -39.5996c3.09961 -3.09961 3.09961 -8.2002 0 -11.2998l-11.2998 -11.2998c-3.10059 -3.10059 -8.2002 -3.10059 -11.2998 0l-39.6006 39.5996l-23.5 -23.5c-10.3994 -10.2998 -15.3994 -24.5996 -13.7998 -39.2002l6.5 -58.5l58.5 -6.5
c14.5996 -1.59961 28.7998 3.40039 39.2002 13.7998z"/>
			<glyph glyph-name="tablet-rugged" unicode="&#xf48f;" horiz-adv-x="448"
				   d="M439.2 283.6l-23.2002 -11.5996v-16l23.2002 -11.5996c5.39941 -2.7002 8.7998 -8.2002 8.7998 -14.3008v-76.1992c0 -6.10059 -3.40039 -11.6006 -8.7998 -14.3008l-23.2002 -11.5996v-16l23.2002 -11.5996c5.39941 -2.7002 8.7998 -8.2002 8.7998 -14.3008v-76.1992
c0 -6.10059 -3.40039 -11.6006 -8.7998 -14.3008l-23.2002 -11.5996c0 -26.5 -21.5 -48 -48 -48h-288c-26.5 0 -48 21.5 -48 48l-23.2002 11.5996c-5.39941 2.7002 -8.7998 8.2002 -8.7998 14.3008v76.1992c0 6.10059 3.40039 11.6006 8.7998 14.3008l23.2002 11.5996v16
l-23.2002 11.5996c-5.39941 2.7002 -8.7998 8.2002 -8.7998 14.3008v76.1992c0 6.10059 3.40039 11.6006 8.7998 14.3008l23.2002 11.5996v16l-23.2002 11.5996c-5.39941 2.7002 -8.7998 8.2002 -8.7998 14.3008v76.1992c0 6.10059 3.40039 11.6006 8.7998 14.3008
l23.2002 11.5996c0 26.5 21.5 48 48 48h288c26.5 0 48 -21.5 48 -48l23.2002 -11.5996c5.39941 -2.7002 8.7998 -8.2002 8.7998 -14.3008v-76.1992c0 -6.10059 -3.40039 -11.6006 -8.7998 -14.3008zM401.7 227.4l-17.7002 8.7998v55.5996l17.7002 8.7998l14.2998 7.2002
v56.4004l-14.2998 7.2002l-17.7002 8.7998v19.7998c0 8.7998 -7.2002 16 -16 16h-288c-8.7998 0 -16 -7.2002 -16 -16v-19.7998l-17.7002 -8.7998l-14.2998 -7.2002v-56.4004l14.2998 -7.2002l17.7002 -8.7998v-55.5996l-17.7002 -8.7998l-14.2998 -7.2002v-56.4004
l14.2998 -7.2002l17.7002 -8.7998v-55.5996l-17.7002 -8.7998l-14.2998 -7.2002v-56.4004l14.2998 -7.2002l17.7002 -8.7998v-19.7998c0 -8.7998 7.2002 -16 16 -16h288c8.7998 0 16 7.2002 16 16v19.7998l17.7002 8.7998l14.2998 7.2002v56.4004l-14.2998 7.2002
l-17.7002 8.7998v55.5996l17.7002 8.7998l14.2998 7.2002v56.4004zM336 384c8.7998 0 16 -7.2002 16 -16v-352c0 -8.7998 -7.2002 -16 -16 -16h-224c-8.7998 0 -16 7.2002 -16 16v352c0 8.7998 7.2002 16 16 16h224zM320 32v320h-192v-320h192z"/>
			<glyph glyph-name="tablets" unicode="&#xf490;"
				   d="M480 448c88.4004 0 160 -71.5996 160 -160s-71.5996 -160 -160 -160s-160 71.5996 -160 160s71.5996 160 160 160zM480 160c29.5996 0 56.4004 10.4004 78.2002 27.2002l-178.9 178.899c-16.8994 -21.6992 -27.2998 -48.5 -27.2998 -78.0996
c0 -70.7002 57.2998 -128 128 -128zM580.7 209.9c16.8994 21.6992 27.2998 48.5 27.2998 78.0996c0 70.7002 -57.2998 128 -128 128c-29.5996 0 -56.4004 -10.4004 -78.0996 -27.2998zM160 256c88.4004 0 160 -71.5996 160 -160s-71.5996 -160 -160 -160
s-160 71.5996 -160 160s71.5996 160 160 160zM160 -32c65.2002 0 118.4 48.9004 126.4 112h-252.801c8 -63.0996 61.2002 -112 126.4 -112zM33.5996 112h252.801c-8 63.0996 -61.2002 112 -126.4 112s-118.4 -48.9004 -126.4 -112z"/>
			<glyph glyph-name="thermometer" unicode="&#xf491;" horiz-adv-x="512"
				   d="M476.4 427.5c50.3994 -41.4004 42 -107.8 7.39941 -142.6l-211 -211.9c-6 -6 -14.0996 -8.90039 -22.5996 -8.90039h-54.9004l-113.5 -114.1c-18.7002 -18.7002 -49.0996 -18.7998 -67.7998 0c-10.5996 10.7002 -25.2998 42.7002 0 68l114.3 113.7v55
c0 8.5 2.90039 16.7002 8.90039 22.7002l207.8 208.3c36.0996 36.2002 93.9004 40.5996 131.4 9.7998zM59.2002 -27.2998l30.5 30.2002l-22.6006 22.5996l-30.5 -30.2002c-14.8994 -14.8994 7.60059 -37.5996 22.6006 -22.5996zM461.1 307.6
c23.6006 23.6006 28.1006 68.1006 -5 95c-25 20.5 -63.8994 17.1006 -88.5996 -7.59961l-14.7998 -14.7998l39.5996 -39.6006c3.10059 -3.09961 3.10059 -8.19922 0 -11.2998l-11.2998 -11.2998c-3.09961 -3.09961 -8.2002 -3.09961 -11.2998 0l-39.5 39.5996
l-45.2002 -45.2998l39.5 -39.7002c3.09961 -3.09961 3.09961 -8.19922 0 -11.2998l-11.2998 -11.2998c-3.10059 -3.09961 -8.2002 -3.09961 -11.2998 0l-39.5 39.5996l-45.2002 -45.2998l39.5 -39.5996c3.09961 -3.10059 3.09961 -8.2002 0 -11.2998l-11.2998 -11.3008
c-3.10059 -3.09961 -8.2002 -3.09961 -11.3008 0l-39.5 39.6006l-34.5 -34.9004v-55c0 -8.5 -3.7998 -16.7002 -9.7998 -22.7002l-60.5996 -61l22.5 -22.5996l60.3994 60.7998c6 6 14.1006 9.7002 22.6006 9.7002h54.8994z"/>
			<glyph glyph-name="vial" unicode="&#xf492;" horiz-adv-x="480"
				   d="M477.7 260c3.09961 -3.2002 3.09961 -8.2002 -0.100586 -11.2998l-11.2998 -11.2998c-3.09961 -3.10059 -8.2002 -3.10059 -11.2998 0l-17 17l-274.2 -274.2c-37.5 -37.6006 -98.2002 -37.5 -135.7 0c-37.5996 37.5 -37.5 98.2002 0 135.7l274.301 274.199l-17 17
c-3.10059 3.10059 -3.10059 8.2002 0 11.3008l11.2998 11.2998c3.09961 3.09961 8.2002 3.09961 11.2998 0zM141.3 2.7998l157.2 157.2h-181l-66.7002 -66.7002c-25 -25 -25 -65.5 0 -90.5c24.2002 -24.2002 66.2998 -24.2002 90.5 0zM330.5 192l84.9004 84.9004l-90.5 90.5
l-175.4 -175.4h181z"/>
			<glyph glyph-name="vials" unicode="&#xf493;"
				   d="M72 416c-4.40039 0 -8 3.59961 -8 8v16c0 4.40039 3.59961 8 8 8h208c4.40039 0 8 -3.59961 8 -8v-16c0 -4.40039 -3.59961 -8 -8 -8h-24v-304c0 -44.0996 -35.9004 -80 -80 -80s-80 35.9004 -80 80v304h-24zM128 416v-128h96v128h-96zM128 256v-144
c0 -63.5 96 -63.5 96 0v144h-96zM360 416c-4.40039 0 -8 3.59961 -8 8v16c0 4.40039 3.59961 8 8 8h208c4.40039 0 8 -3.59961 8 -8v-16c0 -4.40039 -3.59961 -8 -8 -8h-24v-304c0 -44.0996 -35.9004 -80 -80 -80s-80 35.9004 -80 80v304h-24zM416 416v-128h96v128h-96z
M416 256v-144c0 -63.5 96 -63.5 96 0v144h-96zM632 -32c4.40039 0 8 -3.59961 8 -8v-16c0 -4.40039 -3.59961 -8 -8 -8h-624c-4.40039 0 -8 3.59961 -8 8v16c0 4.40039 3.59961 8 8 8h624z"/>
			<glyph glyph-name="warehouse" unicode="&#xf494;"
				   d="M512 224c17.7002 0 32 -14.4004 32 -32v-248c0 -4.40039 -3.59961 -8 -8 -8h-16c-4.40039 0 -8 3.59961 -8 8v56h-384v-56c0 -4.40039 -3.59961 -8 -8 -8h-16c-4.40039 0 -8 3.59961 -8 8v248c0 17.5996 14.2998 32 32 32h384zM512 32v64h-384v-64h384zM512 128v64h-384
v-64h384zM610.6 329.7c17.9004 -7.5 29.4004 -24.9004 29.4004 -44.2002v-341.5c0 -4.40039 -3.59961 -8 -8 -8h-16c-4.40039 0 -8 3.59961 -8 8v341.5c0 6.5 -3.7998 12.2998 -9.7998 14.7998l-272 114.601c-3.90039 1.69922 -8.5 1.69922 -12.4004 0l-272 -114.601
c-6 -2.59961 -9.7998 -8.2998 -9.7998 -14.7998v-341.5c0 -4.40039 -3.59961 -8 -8 -8h-16c-4.40039 0 -8 3.59961 -8 8v341.5c0 19.2998 11.5 36.7002 29.4004 44.2002l272 114.6c11.8994 5 25.3994 5 37.1992 0z"/>
			<glyph glyph-name="warehouse-alt" unicode="&#xf495;"
				   d="M528 96c8.7998 0 16 -7.2002 16 -16v-128c0 -8.7998 -7.2002 -16 -16 -16h-416c-8.7998 0 -16 7.2002 -16 16v256c0 8.7998 7.2002 16 16 16h224c8.7998 0 16 -7.2002 16 -16v-112h176zM320 -32v96h-192v-96h192zM320 96v96h-192v-96h192zM512 -32v96h-160v-96h160z
M610.6 329.7c17.9004 -7.5 29.4004 -24.9004 29.4004 -44.2002v-341.5c0 -4.40039 -3.59961 -8 -8 -8h-16c-4.40039 0 -8 3.59961 -8 8v341.5c0 6.5 -3.7998 12.2998 -9.7998 14.7998l-272 114.601c-3.90039 1.69922 -8.5 1.69922 -12.4004 0l-272 -114.601
c-6 -2.59961 -9.7998 -8.2998 -9.7998 -14.7998v-341.5c0 -4.40039 -3.59961 -8 -8 -8h-16c-4.40039 0 -8 3.59961 -8 8v341.5c0 19.2998 11.5 36.7002 29.4004 44.2002l272 114.6c11.8994 5 25.3994 5 37.1992 0z"/>
			<glyph glyph-name="weight" unicode="&#xf496;" horiz-adv-x="512"
				   d="M448 384c35.29 0 64 -28.71 64 -64v-320c0 -35.29 -28.71 -64 -64 -64h-384c-35.29 0 -64 28.71 -64 64v320c0 35.29 28.71 64 64 64h64.8096c29.2402 38.6201 75.1201 64 127.19 64s97.9502 -25.3799 127.19 -64h64.8096zM256 416c-70.6904 0 -128 -57.3096 -128 -128
s57.3096 -128 128 -128s128 57.3096 128 128s-57.3096 128 -128 128zM480 0v320c0 17.6699 -14.3301 32 -32 32h-45.5596c8.61914 -19.6299 13.5596 -41.2197 13.5596 -64c0 -88.2197 -71.7803 -160 -160 -160s-160 71.7803 -160 160c0 22.7803 4.94043 44.3701 13.5596 64
h-45.5596c-17.6699 0 -32 -14.3301 -32 -32v-320c0 -17.6699 14.3301 -32 32 -32h384c17.6699 0 32 14.3301 32 32zM256 192c-26.4697 0 -48 21.5303 -48 48c0 19.3496 15.5703 50 51.0303 47.6904l30.2598 70.5996c3.47949 8.13965 12.9199 11.8896 21 8.41016
c8.12988 -3.48047 11.8896 -12.8906 8.41016 -21l-30.2402 -70.5703c9.49023 -8.76953 15.54 -21.21 15.54 -35.1299c0 -26.4697 -21.5303 -48 -48 -48zM256 256c-8.83984 0 -16 -7.16016 -16 -16s7.16016 -16 16 -16s16 7.16016 16 16s-7.16016 16 -16 16z"/>
		</font>
</defs>
</svg>
